HIERARCHY
ROOT Hips
{
	OFFSET 0.00000 0.00000 0.00000
	CHANNELS 6 Xposition Yposition Zposition Zrotation Yrotation Xrotation 
	JOINT LHipJoint
	{
		OFFSET 0 0 0
		CHANNELS 3 Zrotation Yrotation Xrotation
		JOINT LeftHip
		{
			OFFSET 1.56857 -1.73443 1.15205
			CHANNELS 3 Zrotation Yrotation Xrotation
			JOINT LeftKnee
			{
				OFFSET 2.39362 -6.57643 0.00000
				CHANNELS 3 Zrotation Yrotation Xrotation
				JOINT LeftAnkle
				{
					OFFSET 2.50952 -6.89485 0.00000
					CHANNELS 3 Zrotation Yrotation Xrotation
					JOINT LeftToe
					{
						OFFSET 0.17171 -0.47178 1.88682
						CHANNELS 3 Zrotation Yrotation Xrotation
						End Site
						{
							OFFSET 0.00000 -0.00000 0.98146
						}
					}
				}
			}
		}
	}
	JOINT RHipJoint
	{
		OFFSET 0 0 0
		CHANNELS 3 Zrotation Yrotation Xrotation
		JOINT RightHip
		{
			OFFSET -1.28153 -1.73443 1.15205
			CHANNELS 3 Zrotation Yrotation Xrotation
			JOINT RightKnee
			{
				OFFSET -2.26861 -6.23296 0.00000
				CHANNELS 3 Zrotation Yrotation Xrotation
				JOINT RightAnkle
				{
					OFFSET -2.54143 -6.98254 0.00000
					CHANNELS 3 Zrotation Yrotation Xrotation
					JOINT RightToe
					{
						OFFSET -0.23309 -0.64041 1.93119
						CHANNELS 3 Zrotation Yrotation Xrotation
						End Site
						{
							OFFSET -0.00000 -0.00000 1.02013
						}
					}
				}
			}
		}
	}
	JOINT lowerback
	{
		OFFSET 0 0 0
		CHANNELS 3 Zrotation Yrotation Xrotation
		JOINT Chest
		{
			OFFSET -0.07096 2.10460 -0.27878
			CHANNELS 3 Zrotation Yrotation Xrotation
			JOINT Chest2
			{
				OFFSET -0.00826 2.13662 -0.08279
				CHANNELS 3 Zrotation Yrotation Xrotation
				JOINT lowerneck
				{
					OFFSET 0 0 0
					CHANNELS 3 Zrotation Yrotation Xrotation
					JOINT Neck
					{
						OFFSET 0.03239 1.77799 0.24435
						CHANNELS 3 Zrotation Yrotation Xrotation
						JOINT Head
						{
							OFFSET 0.01026 1.74194 -0.49664
							CHANNELS 3 Zrotation Yrotation Xrotation
							End Site
							{
								OFFSET 0.00170 1.83057 -0.19653
							}
						}
					}
				}
				JOINT LeftCollar
				{
					OFFSET 0 0 0
					CHANNELS 3 Zrotation Yrotation Xrotation
					JOINT LeftShoulder
					{
						OFFSET 3.19178 1.35907 -0.31412
CHANNELS 3 Zrotation Xrotation Yrotation
						JOINT LeftElbow
						{
OFFSET 0 -4.852470 -0.000000
CHANNELS 3 Zrotation Xrotation Yrotation
							JOINT LeftWrist
							{
OFFSET 0 -3.555840 0.000000
CHANNELS 3 Zrotation Xrotation Yrotation
								JOINT lhand
								{
									OFFSET 0 0 0
CHANNELS 3 Zrotation Xrotation Yrotation
									JOINT LFingers
									{
OFFSET 0 -0.693200 0.000000
CHANNELS 3 Zrotation Xrotation Yrotation
										End Site
										{
OFFSET 0 -0.558880 0.000000
										}
									}
								}
								JOINT LThumb
								{
OFFSET 0 0.000000 0.000000
CHANNELS 3 Zrotation Xrotation Yrotation
									End Site
									{
OFFSET 0 -0.567410 0.567410
									}
								}
							}
						}
					}
				}
				JOINT RightCollar
				{
					OFFSET 0 0 0
					CHANNELS 3 Zrotation Yrotation Xrotation
					JOINT RightShoulder
					{
						OFFSET -3.28999 1.24191 -0.26899
CHANNELS 3 Zrotation Xrotation Yrotation
						JOINT RightElbow
						{
OFFSET 0 -4.644620 0.000000
CHANNELS 3 Zrotation Xrotation Yrotation
							JOINT RightWrist
							{
OFFSET 0 -3.407030 0.000000
CHANNELS 3 Zrotation Xrotation Yrotation
								JOINT rhand
								{
									OFFSET 0 0 0
CHANNELS 3 Zrotation Xrotation Yrotation
									JOINT RFingers
									{
OFFSET 0 -0.619580 0.000000
CHANNELS 3 Zrotation Xrotation Yrotation
										End Site
										{
OFFSET 0 -0.499520 0.000000
										}
									}
								}
								JOINT RThumb
								{
OFFSET 0 0.000000 0.000000
CHANNELS 3 Zrotation Xrotation Yrotation
									End Site
									{
OFFSET 0 -0.507150 0.507150
									}
								}
							}
						}
					}
				}
			}
		}
	}
}
MOTION
Frames: 11
Frame Time: 0.008333333333333333
-35.115600 16.147300 5.357600 6.765800 -34.992800 -14.857300 0.000000 0.000000 0.000000 5.406300 21.338900 9.533100 20.635600 19.990300 91.858700 0.186300 -0.469000 -7.999100 0.006100 0.505800 1.389700 0.000000 0.000000 0.000000 25.221700 4.117500 -2.429100 -3.935800 -12.074500 35.995900 -1.117100 9.193300 -19.006600 -3.770200 -11.848200 35.197100 -13.575700 -4.711000 14.541600 -2.384700 -8.680800 0.737000 6.544000 -3.940600 -5.723700 -1.536300 -2.522200 -17.446000 8.824000 -5.032000 17.314000 2.598600 -1.601500 8.566400 0.000000 0.000000 0.000000 85.793000 -56.370100 2.717500 68.434500 -58.167700 41.438700 32.391900 -27.589600 38.206600 0.000000 0.000000 0.000000 -7.125000 0.000000 0.000000 -1.170700 -13.001100 -1.404300 0.000000 0.000000 0.000000 -120.258700 -6.850600 -61.972700 -67.487000 -57.995500 -40.634400 -35.756800 -12.519800 42.410400 0.000000 0.000000 0.000000 7.125000 0.000000 -0.000000 3.402200 78.344200 -2.645200
-34.961090 16.153776 5.364349 7.519573 -36.077907 -15.168878 0.000000 0.000000 0.000000 5.044924 20.950149 9.740619 20.195146 19.995198 90.570701 0.211662 0.302842 -8.822645 0.004358 0.420354 1.155024 0.000000 0.000000 0.000000 24.122987 4.258622 -2.702690 -3.769208 -11.843851 35.185635 -0.985938 9.080044 -17.867342 -3.184108 -10.940951 32.132101 -14.318425 -4.505985 14.424044 -2.212829 -8.491894 0.798935 7.079043 -3.850419 -5.499854 -1.050076 -2.637361 -17.471634 8.436882 -5.252853 17.448319 2.358808 -1.709205 8.604715 0.000000 0.000000 0.000000 84.212417 -56.054114 1.663306 70.331069 -58.472638 43.055040 35.424190 -31.016627 39.350702 0.000000 0.000000 0.000000 -7.125000 0.000000 0.000000 0.015145 -15.237765 0.045883 0.000000 0.000000 0.000000 -119.257352 -7.708649 -61.863634 -70.752932 -58.511875 -43.418952 -35.561037 -12.936253 42.147205 0.000000 0.000000 0.000000 7.125000 0.000000 0.000000 3.365573 78.011615 -2.593769
-34.806111 16.163544 5.370628 8.070946 -37.187018 -15.338107 0.000000 0.000000 0.000000 4.839593 20.537048 9.928486 19.742420 19.996690 89.246716 0.238200 0.922408 -9.597516 0.002962 0.352357 0.968268 0.000000 0.000000 0.000000 23.211978 4.455194 -3.010866 -3.624533 -11.643285 34.481387 -0.858784 9.068089 -16.767661 -2.684293 -10.165380 29.513993 -14.888886 -4.324063 14.292667 -1.994532 -8.299661 0.861949 7.570579 -3.761867 -5.284891 -0.579981 -2.746842 -17.537774 8.040818 -5.462504 17.610712 2.119874 -1.811628 8.658876 0.000000 0.000000 0.000000 82.524197 -55.745720 0.521561 72.257146 -58.771294 44.698136 38.524566 -34.514218 40.466004 0.000000 0.000000 0.000000 -7.125000 0.000000 0.000000 1.221456 -17.503637 1.541731 0.000000 0.000000 0.000000 -118.240325 -8.574167 -61.689084 -74.047612 -59.002697 -46.232082 -35.372325 -13.339858 41.872172 0.000000 0.000000 0.000000 7.125000 0.000000 0.000000 3.299260 77.669863 -2.519572
-34.648717 16.190267 5.374492 7.579769 -38.419777 -14.774111 0.000000 0.000000 0.000000 5.438040 19.998522 10.015129 19.226480 19.980635 87.737374 0.270800 0.757612 -10.121674 0.003343 0.374235 1.028352 0.000000 0.000000 0.000000 23.267817 4.937391 -3.497200 -3.592749 -11.597678 34.323231 -0.752276 9.577933 -15.871841 -2.628889 -10.068069 29.197789 -14.572030 -4.261094 14.090101 -1.537098 -8.090292 0.930523 7.838019 -3.681700 -5.115687 -0.192972 -2.827063 -17.812561 7.598677 -5.614456 17.917718 1.885360 -1.886842 8.794664 0.000000 0.000000 0.000000 80.281546 -55.476430 -1.071159 74.335219 -59.037590 46.479054 41.975648 -38.375277 41.432956 0.000000 0.000000 0.000000 -7.125000 0.000000 0.000000 2.533185 -19.919956 3.272796 0.000000 0.000000 0.000000 -117.142538 -9.478150 -61.177226 -77.490368 -59.361896 -49.192424 -35.219938 -13.677287 41.536158 0.000000 0.000000 0.000000 7.125000 0.000000 0.000000 3.080040 77.280894 -2.328109
-34.488067 16.222917 5.379064 7.170366 -39.588776 -14.271963 0.000000 0.000000 0.000000 5.803092 19.371374 10.131130 18.686810 19.954475 86.157071 0.305860 0.377383 -10.597256 0.006661 0.485179 1.333334 0.000000 0.000000 0.000000 23.208684 5.391593 -4.048637 -3.566168 -11.559485 34.190894 -0.643504 10.050651 -14.934099 -2.588085 -9.996330 28.964757 -14.293450 -4.201258 13.951737 -1.106243 -7.906317 0.989506 8.109122 -3.609320 -4.986759 0.015749 -2.926431 -17.912032 7.332224 -5.769151 18.097542 1.740408 -1.965702 8.866162 0.000000 0.000000 0.000000 77.876621 -55.152830 -2.839194 76.508020 -59.289571 48.344276 45.516380 -42.336939 42.344607 0.000000 0.000000 0.000000 -7.125000 0.000000 0.000000 3.864255 -22.402493 5.068329 0.000000 0.000000 0.000000 -116.002563 -10.403227 -60.560465 -80.953350 -59.664927 -52.175186 -35.057517 -13.928695 41.248861 0.000000 0.000000 0.000000 7.125000 0.000000 0.000000 2.960042 76.936308 -2.214526
-34.320658 16.267871 5.385105 6.930683 -40.625446 -13.898178 0.000000 0.000000 0.000000 5.683740 18.560293 10.308063 18.097887 19.907344 84.429488 0.346025 -0.449971 -10.972020 0.016077 0.780973 2.146592 0.000000 0.000000 0.000000 22.910930 5.787691 -4.735196 -3.550385 -11.536682 34.112142 -0.530029 10.446314 -13.909349 -2.577581 -9.977663 28.904347 -14.094312 -4.147922 13.946621 -0.730554 -7.775046 1.028582 8.387828 -3.553100 -4.941424 -0.145564 -3.065539 -17.647640 7.430405 -5.929538 18.013402 1.781334 -2.052127 8.804227 0.000000 0.000000 0.000000 75.134901 -54.716512 -4.971092 78.877425 -59.511839 50.384470 49.243175 -46.507399 43.141484 0.000000 0.000000 0.000000 -7.125000 0.000000 0.000000 5.235468 -25.022466 6.997661 0.000000 0.000000 0.000000 -114.775029 -11.372084 -59.725981 -84.458313 -59.851384 -55.204482 -34.874271 -14.001569 41.062677 0.000000 0.000000 0.000000 7.125000 0.000000 0.000000 3.045978 76.683834 -2.262582
-34.148260 16.320046 5.392898 6.706528 -41.601700 -13.514891 0.000000 0.000000 0.000000 5.353017 17.690442 10.431668 17.492428 19.842295 82.648207 0.383933 -1.426318 -11.319921 0.024696 0.363445 0.998815 0.000000 0.000000 0.000000 22.536756 6.077718 -5.517315 -3.539088 -11.520355 34.055741 -0.417829 10.788755 -12.843614 -2.539816 -9.909358 28.684166 -13.839272 -4.118078 13.965554 -0.387090 -7.671169 1.089478 8.605720 -3.513284 -4.891629 -0.313858 -3.219804 -17.500627 7.603255 -6.127725 17.920158 1.842594 -2.146330 8.766023 0.000000 0.000000 0.000000 72.387208 -54.181344 -7.139622 81.252484 -59.694264 52.432919 53.098816 -50.679584 43.704825 0.000000 0.000000 0.000000 -7.125000 0.000000 0.000000 6.720345 -27.638989 9.127960 0.000000 0.000000 0.000000 -113.473516 -12.372634 -58.876632 -87.900897 -59.954916 -58.182522 -34.630266 -14.043413 40.916362 0.000000 0.000000 0.000000 7.125000 0.000000 0.000000 3.302991 76.448774 -2.436299
-33.970620 16.379803 5.402531 6.498682 -42.514500 -13.121623 0.000000 0.000000 0.000000 4.800286 16.758866 10.499263 16.869599 19.758428 80.810525 0.419472 -2.559155 -11.639608 0.032478 -0.803298 -2.208666 0.000000 0.000000 0.000000 22.082315 6.256338 -6.399801 -3.532503 -11.510831 34.022814 -0.306968 11.075298 -11.734833 -2.473419 -9.788917 28.296177 -13.525518 -4.112908 14.009746 -0.077471 -7.596064 1.173291 8.759740 -3.490698 -4.837151 -0.489485 -3.389988 -17.476898 7.854531 -6.365612 17.817351 1.925210 -2.248701 8.752744 0.000000 0.000000 0.000000 69.633243 -53.542351 -9.346626 83.633481 -59.834841 54.490039 57.089785 -54.853581 44.022879 0.000000 0.000000 0.000000 -7.125000 0.000000 0.000000 8.324602 -30.251887 11.469336 0.000000 0.000000 0.000000 -112.094302 -13.406473 -58.011671 -91.277963 -59.971352 -61.106726 -34.322443 -14.052665 40.811922 0.000000 0.000000 0.000000 7.125000 0.000000 0.000000 3.739689 76.232003 -2.741999
-33.786857 16.444622 5.412235 6.512676 -43.374212 -12.796061 0.000000 0.000000 0.000000 3.881493 15.721962 10.432296 16.287401 19.660120 79.083515 0.421318 -4.299819 -11.674422 0.029077 -1.088595 -2.992693 0.000000 0.000000 0.000000 21.301875 6.176523 -7.526175 -3.522308 -11.495997 33.971590 -0.176994 11.460514 -10.357283 -2.379061 -9.612345 27.732005 -13.344272 -4.112091 14.029341 0.180191 -7.548140 1.249707 8.930819 -3.480535 -4.761649 -0.637753 -3.516639 -17.376651 8.073316 -6.534095 17.644007 2.001950 -2.324316 8.697206 0.000000 0.000000 0.000000 66.901575 -52.821779 -11.561982 85.868415 -59.921764 56.423180 61.044866 -58.692873 43.931196 0.000000 0.000000 0.000000 -7.125000 0.000000 0.000000 10.117854 -32.731002 14.118449 0.000000 0.000000 0.000000 -110.641436 -14.516866 -57.055999 -94.457150 -59.896830 -63.857790 -33.966912 -14.035372 40.748219 0.000000 0.000000 0.000000 7.125000 0.000000 0.000000 4.311233 76.038521 -3.143081
-33.599801 16.512162 5.421977 6.645960 -44.205375 -12.506906 0.000000 0.000000 0.000000 2.765854 14.628420 10.292970 15.727051 19.554048 77.416017 0.405045 -6.367334 -11.556049 0.019662 -0.899907 -2.473542 0.000000 0.000000 0.000000 20.346135 5.957738 -8.783697 -3.510171 -11.478310 33.910526 -0.036743 11.898791 -8.835206 -2.269669 -9.405588 27.073093 -13.234281 -4.113615 14.035709 0.409915 -7.514832 1.322146 9.111072 -3.477052 -4.674843 -0.771309 -3.619882 -17.235257 8.274631 -6.665257 17.432733 2.075532 -2.385543 8.618944 0.000000 0.000000 0.000000 64.181897 -52.057339 -13.781830 88.024804 -59.979834 58.289652 64.980650 -62.352183 43.619183 0.000000 0.000000 0.000000 -7.125000 0.000000 0.000000 12.012736 -35.138178 16.933043 0.000000 0.000000 0.000000 -109.148966 -15.668424 -56.051549 -97.529932 -59.773396 -66.515751 -33.585726 -14.003807 40.706421 0.000000 0.000000 0.000000 7.125000 0.000000 0.000000 4.955287 75.857561 -3.595454
-33.407260 16.583551 5.433975 6.919531 -45.084938 -12.271945 0.000000 0.000000 0.000000 1.492632 13.661228 10.026055 15.176389 19.426121 75.762985 0.480482 -6.052326 -12.427025 0.093197 -1.717688 -4.732821 0.000000 0.000000 0.000000 19.211840 5.441924 -10.220171 -3.486045 -11.443014 33.788986 0.122664 12.380866 -6.793216 -2.253536 -9.375350 26.976610 -13.168840 -4.084038 14.048845 0.609423 -7.452415 1.372596 9.282830 -3.454501 -4.622190 -0.740999 -3.665656 -17.238574 8.302656 -6.729749 17.297287 2.071029 -2.415448 8.577136 0.000000 0.000000 0.000000 61.534419 -51.180794 -15.995749 90.050861 -59.987470 60.044019 68.458501 -65.448444 43.065263 0.000000 0.000000 0.000000 -7.125000 0.000000 0.000000 13.919076 -37.350297 19.789178 0.000000 0.000000 0.000000 -107.564166 -16.913817 -54.750556 -100.322892 -59.568605 -68.925436 -33.024482 -13.612655 40.657589 0.000000 0.000000 0.000000 7.125000 0.000000 0.000000 5.885842 75.604666 -4.236379
